<svg width="17" height="17" viewBox="0 0 17 17" fill="none" xmlns="http://www.w3.org/2000/svg">
<g clip-path="url(#clip0_3072_14419)">
<path d="M8.5 13.8125C2.93874 13.8125 0.181555 8.96431 0.0669375 8.75805C-0.0223125 8.59748 -0.0223125 8.40238 0.0669375 8.24181C0.181555 8.03569 2.93874 3.1875 8.5 3.1875C14.0613 3.1875 16.8184 8.03569 16.9331 8.24195C17.0223 8.40252 17.0223 8.59762 16.9331 8.75819C16.8184 8.96431 14.0613 13.8125 8.5 13.8125ZM1.1564 8.4992C1.78832 9.45691 4.26939 12.75 8.5 12.75C12.744 12.75 15.2141 9.45957 15.8436 8.5008C15.2117 7.54309 12.7306 4.25 8.5 4.25C4.25598 4.25 1.78593 7.54043 1.1564 8.4992ZM8.5 11.6875C6.74236 11.6875 5.3125 10.2576 5.3125 8.5C5.3125 6.74236 6.74236 5.3125 8.5 5.3125C10.2576 5.3125 11.6875 6.74236 11.6875 8.5C11.6875 10.2576 10.2576 11.6875 8.5 11.6875ZM8.5 6.375C7.32833 6.375 6.375 7.32833 6.375 8.5C6.375 9.67167 7.32833 10.625 8.5 10.625C9.67167 10.625 10.625 9.67167 10.625 8.5C10.625 7.32833 9.67167 6.375 8.5 6.375Z" fill="white"/>
</g>
<defs>
<clipPath id="clip0_3072_14419">
<rect width="17" height="17" fill="white"/>
</clipPath>
</defs>
</svg>
