<svg width="20" height="20" viewBox="0 0 20 20" fill="none" xmlns="http://www.w3.org/2000/svg">
<path fill-rule="evenodd" clip-rule="evenodd" d="M14.8902 11.2617C14.5606 10.9445 14.0367 10.949 13.7127 11.2719C13.3887 11.5947 13.3841 12.1167 13.7025 12.4451L16.0713 14.8054L14.965 15.9076L12.5962 13.5474C12.3853 13.3298 12.073 13.2426 11.7793 13.3192C11.4856 13.3958 11.2562 13.6243 11.1794 13.9169C11.1025 14.2095 11.1901 14.5207 11.4084 14.7309L13.5563 16.8718C12.9508 17.1234 12.2948 17.2314 11.6403 17.1873C11.582 17.7785 11.3481 18.3389 10.9683 18.7968C11.2833 18.8501 11.6021 18.8781 11.9217 18.8805C13.4811 18.8828 14.9773 18.2663 16.0797 17.1672L17.8504 15.3795C18.1752 15.0516 18.173 14.5237 17.8453 14.1986L14.8902 11.2617Z" fill="white"/>
<path fill-rule="evenodd" clip-rule="evenodd" d="M2.52953 10.798C2.77972 10.5546 3.0705 10.3563 3.38885 10.2121C2.3689 8.51158 2.43758 6.37463 3.56463 4.74256C4.69169 3.11049 6.67023 2.28289 8.62878 2.6243L8.9925 2.2619C9.34813 1.90681 9.73779 1.58724 10.1559 1.30777C7.40963 0.280387 4.31174 1.13009 2.48008 3.41312C0.648432 5.69615 0.498881 8.89417 2.10953 11.337C2.22876 11.1422 2.36965 10.9614 2.52953 10.798Z" fill="white"/>
<path fill-rule="evenodd" clip-rule="evenodd" d="M3.12924 11.3845C3.98355 10.5332 5.36538 10.5332 6.21969 11.3845L10.1827 15.3331C11.0414 16.1887 11.0414 17.5792 10.1827 18.4348C9.32834 19.286 7.94651 19.286 7.0922 18.4348L3.12924 14.4862C2.27053 13.6306 2.27053 12.2401 3.12924 11.3845Z" fill="white"/>
<path fill-rule="evenodd" clip-rule="evenodd" d="M19.1742 2.85359C16.5266 0.215633 12.2341 0.215633 9.58649 2.85359L5.69141 6.73372L6.28613 7.32545C7.31073 8.34384 8.96928 8.34384 9.99389 7.32545L11.5 5.82646L18.5762 13.0042L19.1759 12.4066C21.8235 9.7686 21.8235 5.4916 19.1759 2.85359H19.1742Z" fill="white"/>
</svg>
