<svg width="11" height="11" viewBox="0 0 11 11" fill="none" xmlns="http://www.w3.org/2000/svg">
<path d="M1.68 6.1C1.45333 6.1 1.26667 6.02667 1.12 5.88C0.973333 5.73333 0.9 5.55333 0.9 5.34C0.9 5.12667 0.973333 4.95333 1.12 4.82C1.26667 4.67333 1.45333 4.6 1.68 4.6H9.88C10.1067 4.6 10.2933 4.67333 10.44 4.82C10.5867 4.96667 10.66 5.14667 10.66 5.36C10.66 5.57333 10.5867 5.75333 10.44 5.9C10.2933 6.03333 10.1067 6.1 9.88 6.1H1.68ZM5.76 10.28C5.52 10.28 5.31333 10.2 5.14 10.04C4.98 9.88 4.9 9.68 4.9 9.44V1.18C4.9 0.926667 4.98 0.72 5.14 0.559999C5.31333 0.399999 5.52667 0.319999 5.78 0.319999C6.03333 0.319999 6.23333 0.399999 6.38 0.559999C6.54 0.72 6.62 0.926667 6.62 1.18V9.42C6.62 9.67333 6.54 9.88 6.38 10.04C6.22 10.2 6.01333 10.28 5.76 10.28Z" fill="#52E34F"/>
</svg>
