<?xml version="1.0" standalone="no"?>
<!DOCTYPE svg PUBLIC "-//W3C//DTD SVG 20010904//EN"
 "http://www.w3.org/TR/2001/REC-SVG-20010904/DTD/svg10.dtd">
<svg version="1.0" xmlns="http://www.w3.org/2000/svg"
 width="41.000000pt" height="43.000000pt" viewBox="0 0 41.000000 43.000000"
 preserveAspectRatio="xMidYMid meet">

<g transform="translate(0.000000,43.000000) scale(0.100000,-0.100000)"
fill="#000000" stroke="none">
<path d="M15.7646 20.8926C17.1761 14.8748 21.8749 10.1761 27.8926 8.76457C32.2386 7.74515 36.7614 7.74514 41.1074 8.76457C47.1252 10.1761 51.8239 14.8749 53.2354 20.8926C54.2549 25.2386 54.2549 29.7614 53.2354 34.1074C51.8239 40.1252 47.1252 44.8239 41.1074 46.2354C36.7614 47.2549 32.2386 47.2549 27.8926 46.2354C21.8749 44.8239 17.1761 40.1252 15.7646 34.1074C14.7451 29.7615 14.7451 25.2386 15.7646 20.8926Z" fill="#8D8D8F"/>
<path d="M15.7646 20.8926C17.1761 14.8748 21.8749 10.1761 27.8926 8.76457C32.2386 7.74515 36.7614 7.74514 41.1074 8.76457C47.1252 10.1761 51.8239 14.8749 53.2354 20.8926C54.2549 25.2386 54.2549 29.7614 53.2354 34.1074C51.8239 40.1252 47.1252 44.8239 41.1074 46.2354C36.7614 47.2549 32.2386 47.2549 27.8926 46.2354C21.8749 44.8239 17.1761 40.1252 15.7646 34.1074C14.7451 29.7615 14.7451 25.2386 15.7646 20.8926Z" fill="url(#pattern0)"/>
</g>
<defs>
<filter id="filter0_d_1918_4690" x="0.375" y="0.6875" width="68.25" height="68.25" filterUnits="userSpaceOnUse" color-interpolation-filters="sRGB">
<feFlood flood-opacity="0" result="BackgroundImageFix"/>
<feColorMatrix in="SourceAlpha" type="matrix" values="0 0 0 0 0 0 0 0 0 0 0 0 0 0 0 0 0 0 127 0" result="hardAlpha"/>
<feOffset dy="7.3125"/>
<feGaussianBlur stdDeviation="7.3125"/>
<feColorMatrix type="matrix" values="0 0 0 0 0 0 0 0 0 0 0 0 0 0 0 0 0 0 0.08 0"/>
<feBlend mode="normal" in2="BackgroundImageFix" result="effect1_dropShadow_1918_4690"/>
<feBlend mode="normal" in="SourceGraphic" in2="effect1_dropShadow_1918_4690" result="shape"/>
</filter>
<pattern id="pattern0" patternContentUnits="objectBoundingBox" width="1" height="1">
<use xlink:href="#image0_1918_4690" transform="matrix(0.0026178 0 0 0.00297984 0 -0.00453938)"/>
</pattern>
</g>
</svg>
