<svg width="20" height="18" viewBox="0 0 20 18" fill="none" xmlns="http://www.w3.org/2000/svg">
<path d="M17.1429 3.59935H5.73661C4.97768 3.59935 4.89732 2.67231 5.54018 2.5193H17.1429C17.308 2.5193 17.4777 2.5283 17.6429 2.55081C17.4152 0.926233 15.9196 -0.203318 14.3125 0.0306927C14.2679 0.0351929 14.2277 0.0441933 14.183 0.0531937L2.89286 1.99278C2.74107 2.01528 2.58482 2.04228 2.43304 2.07378H2.42411C2.36607 2.08278 2.3125 2.09629 2.25446 2.10979C0.526786 2.5283 0.0223214 4.09438 0.0223214 5.03942V6.12847C0.00892857 6.24547 0 6.36248 0 6.47948V15.1199C0 16.7084 1.28125 18 2.85714 18H17.1429C18.7188 18 20 16.7084 20 15.1199V6.47948C20 4.89091 18.7188 3.59935 17.1429 3.59935ZM15.0223 12.2397C14.2321 12.2397 13.5938 11.5962 13.5938 10.7997C13.5938 10.0031 14.2321 9.35961 15.0223 9.35961C15.8125 9.35961 16.4509 10.0031 16.4509 10.7997C16.4509 11.5962 15.8125 12.2397 15.0223 12.2397Z" fill="white"/>
</svg>
