<svg width="10" height="14" viewBox="0 0 10 14" fill="none" xmlns="http://www.w3.org/2000/svg">
<path d="M0.348176 6.506V5.078H8.69518V6.506H0.348176ZM0.110176 8.75V7.322H8.35518V8.75H0.110176ZM3.64618 7.05C3.64618 7.9 3.76518 8.61967 4.00318 9.209C4.24118 9.787 4.56984 10.2233 4.98918 10.518C5.41984 10.8127 5.91284 10.96 6.46818 10.96C7.44284 10.96 8.29284 10.6087 9.01818 9.906V12.626C8.63284 12.8413 8.22484 13.0113 7.79418 13.136C7.37484 13.2607 6.93284 13.323 6.46818 13.323C5.36884 13.323 4.42251 13.051 3.62918 12.507C2.83584 11.9517 2.22384 11.2037 1.79318 10.263C1.36251 9.311 1.14718 8.24 1.14718 7.05C1.14718 6.166 1.26618 5.34433 1.50418 4.585C1.75351 3.81433 2.11051 3.14567 2.57518 2.579C3.03984 2.001 3.60084 1.55333 4.25818 1.236C4.91551 0.918666 5.65218 0.76 6.46818 0.76C6.93284 0.76 7.37484 0.822333 7.79418 0.946999C8.22484 1.06033 8.63284 1.23033 9.01818 1.457V4.194C8.29284 3.49133 7.44284 3.14 6.46818 3.14C5.91284 3.14 5.41984 3.28733 4.98918 3.582C4.56984 3.87667 4.24118 4.313 4.00318 4.891C3.76518 5.469 3.64618 6.18867 3.64618 7.05Z" fill="#00B9C7"/>
</svg>
